<svg width="2000" height="2000" viewBox="0 0 2000 2000" fill="none" xmlns="http://www.w3.org/2000/svg">
<g clip-path="url(#clip0_2673_477)">
<path d="M1586 0H414C185.354 0 0 185.354 0 414V1586C0 1814.65 185.354 2000 414 2000H1586C1814.65 2000 2000 1814.65 2000 1586V414C2000 185.354 1814.65 0 1586 0Z" fill="#00002B"/>
<path d="M341.647 1616.85C342.493 1616.52 343.484 1616.16 344.268 1615.54C364.221 1598.09 384.528 1580.86 404.274 1563.15C441.997 1529.47 473.303 1490.02 504.255 1450.34C519.24 1431.06 532.716 1410.43 545.723 1389.75C571.937 1347.88 594.559 1304.2 613.588 1258.71C628.397 1223.52 642.03 1187.82 652.37 1151.01C663.722 1110.33 672.313 1068.87 678.382 1027.04C680.721 1010.75 682.591 994.409 683.991 978.016C685.521 960.077 686.613 942.231 687.528 924.271C688.063 911.706 688.129 899.089 687.872 886.389C687.567 872.028 686.971 857.73 686.197 843.317C685.642 832.806 685.056 822.15 684.032 811.586C683.201 802.652 681.756 793.697 680.748 784.649C679.82 777.406 679.183 770.101 678.254 762.858C677.998 760.938 677.482 759.226 677.08 757.337C674.677 743.878 672.598 730.503 670.049 717.075C668.373 708.472 666.374 699.787 664.552 691.215C662.483 681.481 660.091 671.664 657.583 662.024C655.169 652.819 652.17 643.738 649.432 634.45C648.09 629.573 646.779 624.841 644.676 619.973C543.799 951.935 442.777 1283.93 341.847 1616.36L341.647 1616.85Z" fill="#F4F4F9"/>
<path d="M1666.17 1616.86C1665.32 1616.53 1664.33 1616.17 1663.55 1615.55C1643.6 1598.09 1623.29 1580.87 1603.54 1563.16C1565.82 1529.48 1534.51 1490.03 1503.56 1450.35C1488.58 1431.07 1475.1 1410.44 1462.09 1389.76C1435.88 1347.89 1413.26 1304.21 1394.23 1258.71C1379.42 1223.53 1365.79 1187.83 1355.45 1151.01C1344.1 1110.34 1335.5 1068.88 1329.44 1027.05C1327.1 1010.76 1325.23 994.417 1323.83 978.024C1322.3 960.085 1321.2 942.239 1320.29 924.279C1319.75 911.714 1319.69 899.097 1319.95 886.396C1320.25 872.036 1320.85 857.738 1321.62 843.325C1322.18 832.814 1322.76 822.158 1323.79 811.594C1324.62 802.66 1326.06 793.705 1327.07 784.657C1328 777.414 1328.63 770.109 1329.56 762.866C1329.82 760.946 1330.34 759.234 1330.74 757.345C1333.14 743.886 1335.22 730.511 1337.77 717.083C1339.44 708.48 1341.44 699.794 1343.27 691.223C1345.33 681.489 1347.73 671.672 1350.23 662.032C1352.65 652.827 1355.65 643.746 1358.39 634.458C1359.73 629.581 1361.04 624.849 1363.14 619.981C1464.02 951.943 1565.04 1283.94 1665.97 1616.36L1666.17 1616.86Z" fill="#F4F4F9"/>
<path d="M536.399 405.574C537.165 405.66 538.058 405.74 538.837 406.077C559.029 416.002 579.462 425.662 599.541 435.845C637.867 455.172 672.201 480.64 706.294 506.374C722.815 518.89 738.396 532.844 753.603 546.944C784.291 575.507 812.434 606.35 838.03 639.473C857.901 665.069 876.92 691.34 893.486 719.255C911.73 750.112 927.881 782.214 942.046 815.179C947.542 828.02 952.665 841.007 957.415 854.139C962.61 868.511 967.426 882.903 972.121 897.427C975.32 907.611 978.146 917.941 980.726 928.41C983.631 940.251 986.283 952.105 988.815 964.092C990.669 972.831 992.529 981.697 994.01 990.582C995.292 998.09 996.075 1005.75 997.236 1013.39C998.066 1019.53 999.149 1025.66 999.978 1031.8C1000.19 1033.43 1000.14 1034.95 1000.23 1036.59C1001.22 1048.15 1002.45 1059.57 1003.31 1071.14C1003.83 1078.56 1004.09 1086.12 1004.48 1093.55C1004.93 1101.99 1005.12 1110.56 1005.18 1119.02C1005.23 1127.09 1004.76 1135.2 1004.56 1143.41C1004.53 1147.71 1004.49 1151.87 1003.84 1156.33C848.208 906.319 692.45 656.318 536.672 405.938L536.399 405.574Z" fill="#F4F4F9"/>
<path d="M1471.42 405.582C1470.66 405.668 1469.76 405.747 1468.98 406.085C1448.79 416.01 1428.36 425.67 1408.28 435.853C1369.95 455.179 1335.62 480.648 1301.53 506.382C1285.01 518.898 1269.43 532.852 1254.22 546.951C1223.53 575.515 1195.39 606.358 1169.79 639.481C1149.92 665.076 1130.9 691.348 1114.34 719.263C1096.09 750.12 1079.94 782.222 1065.77 815.186C1060.28 828.028 1055.16 841.014 1050.41 854.147C1045.21 868.519 1040.4 882.911 1035.7 897.435C1032.5 907.619 1029.68 917.949 1027.1 928.418C1024.19 940.259 1021.54 952.113 1019.01 964.099C1017.15 972.839 1015.29 981.705 1013.81 990.59C1012.53 998.098 1011.75 1005.76 1010.58 1013.4C1009.76 1019.54 1008.67 1025.67 1007.84 1031.81C1007.63 1033.44 1007.68 1034.96 1007.59 1036.6C1006.61 1048.16 1005.37 1059.58 1004.51 1071.15C1004 1078.57 1003.73 1086.13 1003.34 1093.56C1002.9 1101.99 1002.7 1110.57 1002.64 1119.02C1002.59 1127.1 1003.06 1135.2 1003.26 1143.42C1003.29 1147.71 1003.33 1151.88 1003.98 1156.34C1159.61 906.327 1315.37 656.326 1471.15 405.946L1471.42 405.582Z" fill="#F4F4F9"/>
</g>
<defs>
<clipPath id="clip0_2673_477">
<rect width="2000" height="2000" fill="white"/>
</clipPath>
</defs>
</svg>
