<svg width="2081" height="1508" viewBox="0 0 2081 1508" fill="none" xmlns="http://www.w3.org/2000/svg">
<path d="M231.625 1507.01C232.658 1506.61 233.869 1506.17 234.826 1505.41C259.197 1484.09 283.999 1463.06 308.116 1441.42C354.191 1400.29 392.427 1352.1 430.231 1303.64C448.533 1280.09 464.993 1254.89 480.88 1229.63C512.897 1178.5 540.526 1125.15 563.768 1069.58C581.856 1026.6 598.506 983.006 611.136 938.037C625.001 888.354 635.494 837.719 642.907 786.626C645.763 766.731 648.047 746.773 649.757 726.75C651.626 704.84 652.959 683.043 654.077 661.107C654.73 645.761 654.811 630.35 654.497 614.839C654.125 597.299 653.396 579.835 652.451 562.232C651.773 549.394 651.058 536.379 649.807 523.477C648.793 512.565 647.027 501.627 645.797 490.576C644.662 481.729 643.884 472.807 642.75 463.961C642.438 461.616 641.807 459.525 641.316 457.218C638.381 440.78 635.841 424.443 632.728 408.042C630.681 397.535 628.24 386.927 626.014 376.458C623.487 364.569 620.565 352.579 617.503 340.804C614.554 329.561 610.891 318.47 607.548 307.126C605.908 301.169 604.307 295.389 601.738 289.444C478.53 694.896 355.143 1100.39 231.869 1506.41L231.625 1507.01Z" fill="#00002B"/>
<path d="M1849.37 1507.02C1848.34 1506.62 1847.13 1506.18 1846.17 1505.42C1821.8 1484.1 1797 1463.07 1772.88 1441.43C1726.8 1400.3 1688.57 1352.11 1650.76 1303.65C1632.46 1280.1 1616 1254.9 1600.12 1229.64C1568.1 1178.51 1540.47 1125.16 1517.23 1069.59C1499.14 1026.61 1482.49 983.015 1469.86 938.046C1455.99 888.363 1445.5 837.728 1438.09 786.635C1435.23 766.74 1432.95 746.781 1431.24 726.759C1429.37 704.849 1428.04 683.052 1426.92 661.116C1426.26 645.769 1426.18 630.359 1426.5 614.847C1426.87 597.308 1427.6 579.844 1428.54 562.241C1429.22 549.403 1429.94 536.387 1431.19 523.486C1432.2 512.574 1433.97 501.636 1435.2 490.584C1436.33 481.738 1437.11 472.816 1438.25 463.97C1438.56 461.625 1439.19 459.534 1439.68 457.227C1442.61 440.788 1445.15 424.452 1448.27 408.051C1450.31 397.544 1452.76 386.935 1454.98 376.466C1457.51 364.578 1460.43 352.587 1463.49 340.813C1466.44 329.57 1470.1 318.479 1473.45 307.135C1475.09 301.178 1476.69 295.398 1479.26 289.453C1602.47 694.905 1725.85 1100.39 1849.13 1506.42L1849.37 1507.02Z" fill="#00002B"/>
<path d="M469.49 27.5808C470.426 27.6859 471.516 27.783 472.468 28.1957C497.13 40.3177 522.086 52.116 546.61 64.5536C593.422 88.1584 635.356 119.266 676.997 150.697C697.175 165.983 716.205 183.026 734.779 200.247C772.261 235.134 806.633 272.805 837.896 313.26C862.167 344.522 885.396 376.61 905.629 410.705C927.911 448.392 947.638 487.602 964.94 527.864C971.652 543.548 977.909 559.41 983.71 575.45C990.056 593.003 995.937 610.581 1001.67 628.32C1005.58 640.759 1009.03 653.376 1012.18 666.163C1015.73 680.625 1018.97 695.103 1022.06 709.743C1024.33 720.418 1026.6 731.246 1028.41 742.099C1029.97 751.268 1030.93 760.623 1032.35 769.954C1033.36 777.457 1034.68 784.943 1035.7 792.445C1035.96 794.436 1035.9 796.289 1036 798.288C1037.21 812.41 1038.71 826.362 1039.76 840.493C1040.4 849.557 1040.72 858.791 1041.2 867.863C1041.74 878.166 1041.98 888.638 1042.05 898.965C1042.11 908.83 1041.54 918.728 1041.29 928.763C1041.26 934.007 1041.21 939.098 1040.41 944.536C850.327 639.181 660.088 333.834 469.824 28.0259L469.49 27.5808Z" fill="#00002B"/>
<path d="M1611.51 27.5905C1610.57 27.6957 1609.48 27.7928 1608.53 28.2055C1583.87 40.3275 1558.91 52.1258 1534.39 64.5633C1487.58 88.1681 1445.64 119.275 1404 150.706C1383.83 165.993 1364.8 183.036 1346.22 200.257C1308.74 235.144 1274.37 272.815 1243.1 313.27C1218.83 344.532 1195.6 376.62 1175.37 410.714C1153.09 448.402 1133.36 487.612 1116.06 527.874C1109.35 543.557 1103.09 559.419 1097.29 575.459C1090.94 593.013 1085.06 610.591 1079.33 628.33C1075.42 640.769 1071.97 653.386 1068.82 666.172C1065.27 680.635 1062.03 695.113 1058.94 709.753C1056.67 720.427 1054.4 731.256 1052.59 742.108C1051.03 751.278 1050.07 760.633 1048.65 769.964C1047.64 777.466 1046.32 784.952 1045.3 792.455C1045.04 794.445 1045.1 796.299 1045 798.298C1043.79 812.42 1042.29 826.372 1041.24 840.503C1040.6 849.567 1040.28 858.801 1039.8 867.873C1039.26 878.175 1039.02 888.648 1038.95 898.974C1038.89 908.84 1039.46 918.738 1039.71 928.773C1039.74 934.017 1039.79 939.108 1040.59 944.546C1230.67 639.191 1420.91 333.844 1611.18 28.0357L1611.51 27.5905Z" fill="#00002B"/>
</svg>
