<svg width="2081" height="1508" viewBox="0 0 2081 1508" fill="none" xmlns="http://www.w3.org/2000/svg">
<path d="M231.625 1507.02C232.658 1506.61 233.869 1506.17 234.827 1505.41C259.197 1484.09 283.999 1463.06 308.116 1441.43C354.191 1400.29 392.427 1352.1 430.232 1303.64C448.533 1280.09 464.993 1254.89 480.88 1229.63C512.897 1178.5 540.526 1125.15 563.768 1069.58C581.856 1026.61 598.506 983.007 611.136 938.038C625.001 888.355 635.494 837.72 642.907 786.627C645.763 766.732 648.047 746.774 649.757 726.752C651.626 704.841 652.959 683.044 654.077 661.108C654.73 645.762 654.811 630.351 654.497 614.84C654.125 597.3 653.396 579.836 652.451 562.233C651.773 549.395 651.058 536.38 649.807 523.478C648.793 512.566 647.027 501.628 645.797 490.577C644.662 481.73 643.884 472.808 642.75 463.962C642.438 461.617 641.807 459.526 641.316 457.219C638.381 440.781 635.841 424.444 632.728 408.043C630.681 397.536 628.24 386.928 626.014 376.459C623.487 364.57 620.565 352.58 617.503 340.805C614.554 329.562 610.891 318.471 607.548 307.127C605.908 301.17 604.307 295.39 601.738 289.445C478.53 694.897 355.143 1100.39 231.869 1506.41L231.625 1507.02Z" fill="#F4F4F9"/>
<path d="M1849.37 1507.02C1848.34 1506.62 1847.13 1506.18 1846.17 1505.42C1821.8 1484.1 1797 1463.07 1772.88 1441.43C1726.8 1400.3 1688.57 1352.11 1650.76 1303.65C1632.46 1280.1 1616 1254.9 1600.12 1229.64C1568.1 1178.51 1540.47 1125.16 1517.23 1069.59C1499.14 1026.61 1482.49 983.015 1469.86 938.046C1455.99 888.363 1445.5 837.728 1438.09 786.635C1435.23 766.74 1432.95 746.782 1431.24 726.759C1429.37 704.849 1428.04 683.052 1426.92 661.116C1426.26 645.769 1426.18 630.359 1426.5 614.847C1426.87 597.308 1427.6 579.844 1428.54 562.241C1429.22 549.403 1429.94 536.387 1431.19 523.486C1432.2 512.574 1433.97 501.636 1435.2 490.584C1436.33 481.738 1437.11 472.816 1438.25 463.97C1438.56 461.625 1439.19 459.534 1439.68 457.227C1442.61 440.788 1445.15 424.452 1448.27 408.051C1450.31 397.544 1452.76 386.935 1454.98 376.466C1457.51 364.578 1460.43 352.588 1463.49 340.813C1466.44 329.57 1470.1 318.479 1473.45 307.135C1475.09 301.178 1476.69 295.398 1479.26 289.453C1602.47 694.905 1725.85 1100.39 1849.13 1506.42L1849.37 1507.02Z" fill="#F4F4F9"/>
<path d="M469.489 27.5809C470.425 27.6861 471.515 27.7831 472.467 28.1959C497.13 40.3178 522.085 52.1161 546.609 64.5537C593.421 88.1585 635.355 119.266 676.996 150.697C697.174 165.983 716.204 183.026 734.778 200.247C772.26 235.134 806.632 272.805 837.895 313.261C862.166 344.523 885.395 376.61 905.628 410.705C927.91 448.393 947.637 487.602 964.939 527.864C971.651 543.548 977.908 559.41 983.709 575.45C990.055 593.003 995.936 610.581 1001.67 628.321C1005.58 640.76 1009.03 653.376 1012.18 666.163C1015.73 680.625 1018.97 695.103 1022.06 709.743C1024.33 720.418 1026.6 731.246 1028.41 742.099C1029.97 751.268 1030.93 760.624 1032.35 769.955C1033.36 777.457 1034.68 784.943 1035.7 792.445C1035.95 794.436 1035.9 796.289 1036 798.288C1037.21 812.411 1038.71 826.363 1039.76 840.493C1040.39 849.557 1040.72 858.791 1041.2 867.864C1041.74 878.166 1041.98 888.638 1042.05 898.965C1042.11 908.831 1041.54 918.728 1041.29 928.764C1041.25 934.008 1041.21 939.098 1040.41 944.537C850.326 639.182 660.087 333.834 469.823 28.026L469.489 27.5809Z" fill="#F4F4F9"/>
<path d="M1611.51 27.5926C1610.58 27.6978 1609.49 27.7949 1608.54 28.2076C1583.87 40.3296 1558.92 52.1278 1534.39 64.5654C1487.58 88.1702 1445.65 119.277 1404.01 150.708C1383.83 165.995 1364.8 183.038 1346.22 200.259C1308.74 235.146 1274.37 272.817 1243.11 313.272C1218.84 344.534 1195.61 376.622 1175.37 410.716C1153.09 448.404 1133.36 487.614 1116.06 527.876C1109.35 543.56 1103.09 559.422 1097.29 575.462C1090.95 593.015 1085.07 610.593 1079.33 628.332C1075.42 640.771 1071.97 653.388 1068.82 666.175C1065.27 680.637 1062.03 695.115 1058.94 709.755C1056.68 720.43 1054.4 731.258 1052.6 742.111C1051.03 751.28 1050.07 760.635 1048.66 769.967C1047.64 777.469 1046.32 784.955 1045.31 792.457C1045.05 794.448 1045.1 796.301 1045 798.3C1043.79 812.422 1042.29 826.375 1041.24 840.505C1040.61 849.569 1040.28 858.803 1039.8 867.875C1039.26 878.178 1039.02 888.65 1038.95 898.977C1038.9 908.842 1039.46 918.74 1039.71 928.775C1039.75 934.02 1039.79 939.11 1040.59 944.549C1230.68 639.193 1420.92 333.846 1611.18 28.0377L1611.51 27.5926Z" fill="#F4F4F9"/>
</svg>
